PathFileType	4	(X/Y/Z)	Patient4_TMGait_0pt4_02_right_44.trc.trc
DataRate	CameraRate	NumFrames	NumMarkers	Units	OrigDataRate	OrigDataStartFrame	OrigNumFrames
74.468085106383	74.468085106383	6	33	mm	74.468085106383	124	       141
Frame#	Time	Sacral			L.Shoulder			Chest			R.Shoulder			Neck			R.ASIS			L.ASIS			R.Thigh.Superior			R.Thigh.Lateral			R.Thigh.Inferior			R.Patella			L.Thigh.Superior			L.Thigh.Lateral			L.Thigh.Inferior			L.Patella			L.Shank.Superior			L.Shank.Lateral			L.Shank.Inferior			R.Shank.Superior			R.Shank.Lateral			R.Shank.Inferior			R.Heel			R.Midfoot.Superior			R.Midfoot.Lateral			R.Toe			L.Heel			L.Midfoot.Lateral			L.Midfoot.Superior			L.Toe			L.Elbow			L.Wrist			R.Elbow			R.Wrist			
		X1	Y1	Z1	X2	Y2	Z2	X3	Y3	Z3	X4	Y4	Z4	X5	Y5	Z5	X6	Y6	Z6	X7	Y7	Z7	X8	Y8	Z8	X9	Y9	Z9	X10	Y10	Z10	X11	Y11	Z11	X12	Y12	Z12	X13	Y13	Z13	X14	Y14	Z14	X15	Y15	Z15	X16	Y16	Z16	X17	Y17	Z17	X18	Y18	Z18	X19	Y19	Z19	X20	Y20	Z20	X21	Y21	Z21	X22	Y22	Z22	X23	Y23	Z23	X24	Y24	Z24	X25	Y25	Z25	X26	Y26	Z26	X27	Y27	Z27	X28	Y28	Z28	X29	Y29	Z29	X30	Y30	Z30	X31	Y31	Z31	X32	Y32	Z32	X33	Y33	Z33	

124	59.631714285714	809.633411575322	1003.889818940614	469.697892181023	999.493951808312	1433.894798698054	297.180534293030	1084.887778678469	1371.338622189806	470.197519365268	979.474997443158	1442.172322870343	633.311327669908	958.675181840922	1496.620067343992	452.308514239332	1028.561080136924	945.408222987375	608.855237984843	1037.829937325722	963.224773111020	334.094889123578	1084.414375542105	749.720683344045	588.482394049469	1015.098976167866	636.381747043805	653.871899039396	1101.379910251384	588.512665810513	578.618060314683	1118.822818626034	509.120758826396	591.816136223625	1048.240518492105	734.815463878873	361.463453350315	940.795432358467	635.496647130122	290.719196876454	1004.274077945349	545.102066842410	354.968006411349	991.787318435506	478.057382877878	362.036016271994	960.095634475496	410.365015738259	352.519494142202	859.225271592929	305.349338369096	300.379467300302	899.872674596526	188.397663314633	369.424987805098	1102.292243091318	420.988750369391	603.860357510790	1045.078546234352	310.044116048736	667.367261709647	1111.420282418820	221.737115277776	616.958169189042	1012.715201684622	43.750511659515	591.053633026693	1179.024089347684	105.298462741870	628.580539047343	1096.121943696535	38.894085682672	665.410344036740	1301.310101664404	61.357245633676	655.878284135380	764.826227233974	38.351567251694	416.774342374324	833.711599429293	35.024052657504	331.641761748560	918.729155182718	95.261115097048	355.476492231280	1045.875995056682	41.803404462621	318.566091213260	1064.407628692454	1102.431868390314	149.964135518032	1317.144406494894	1040.345572441288	148.456753990606	859.419081084770	1115.922701295442	740.505669829835	870.243017569971	853.665498009593	736.711263017951	
125	59.645142857143	810.891396467924	1002.715047457878	473.157389116198	998.044573451227	1433.345333275021	300.036575264281	1084.436402256948	1371.290836645843	472.796705082615	979.115534226322	1441.492783499644	636.321190791765	957.637660702965	1495.990853347421	455.258850523652	1030.493567832749	944.896005064459	611.299129320297	1038.707158952781	962.871468769546	336.608768875771	1086.517634462739	748.623409551294	589.975045669201	1015.768927934939	635.296156479210	654.556055295972	1101.709183179262	587.619920063371	579.044261547841	1117.530011116833	507.265811200695	591.193216066340	1048.655448681571	733.917776813100	362.994813972917	940.190188504328	635.024328019952	292.967566000930	1003.767051339292	544.126836313477	356.454418065124	991.218871764236	476.616801474605	363.324856836808	958.351870344122	409.340551787987	353.811021662896	855.891394172071	305.741236296150	301.680482822944	895.439255140282	187.886826229964	369.912188217766	1100.189446173660	418.503006052298	603.297158202855	1041.286000915686	308.453385716928	667.095031140372	1105.202643189994	218.909900104013	615.670104466064	1002.349558430149	43.281029980518	590.593180577271	1169.877730652421	102.229290891484	626.668200319770	1086.031171344261	37.758049452780	664.660080119896	1291.898068165658	56.474691373976	653.675127526192	759.306648163129	38.243700317137	416.717429570898	828.272562294123	34.846183397785	331.689250330496	913.319328777464	95.170548380813	355.516755569584	1040.497992030954	41.666400856089	318.504681471232	1061.093689373563	1100.584149955374	153.986616063809	1313.151228205542	1034.729429556089	151.165254874769	863.516536348379	1113.293199866397	743.810830048737	880.216434993526	851.264787728705	740.093815789328	
126	59.658571428571	812.164180737413	1001.696054721381	476.692524874363	996.629857927196	1432.974146423182	303.049158786170	1084.019566200407	1371.356375953251	475.522497668803	978.831238679232	1440.882536206703	639.487093065420	956.649363639995	1495.496620485907	458.376833737803	1032.436836279465	944.602771730316	613.845188710473	1039.648595606715	962.634752251337	339.224043447132	1088.602034803676	747.787679028708	591.486952824318	1016.749582066289	634.589084986420	655.498621254318	1102.194361447754	587.068132563618	579.542497702715	1116.451850598332	505.757858794687	590.815650443694	1049.317998150251	733.130742323321	364.620202955964	939.893134764060	634.532940313997	295.389538927042	1003.799370776273	543.171310747111	358.030571743992	991.302723213560	475.065417265311	364.621431361730	957.051544367978	408.268330807227	355.152000238409	852.830383490836	306.285011711252	303.094388762290	891.151388017625	187.444844995832	370.409855822034	1098.507915344258	416.483136404531	603.062405505501	1038.292364646537	307.231380503527	667.298318247947	1099.880820198298	216.610521737036	614.744876775639	993.304364631591	42.909770507700	590.495972210322	1161.785326204335	99.987178528043	625.212074766148	1077.270014192845	36.998569460490	664.271034061373	1283.660694467725	52.883755621728	651.904411302148	753.756690435755	38.314829115369	416.634571578222	822.823698366958	34.700310995181	331.749593766778	907.969009627372	95.077738926585	355.507880412391	1035.123772337669	41.489525674490	318.427101792870	1057.355258191735	1098.855920500662	158.127705213354	1308.448680335455	1028.261242505736	153.782098006944	868.071697983066	1110.637643887060	747.337702218222	891.306543970164	848.998531734706	743.947115263105	
127	59.672000000000	813.387553338087	1000.900753671920	480.272306660610	995.291442015767	1432.814083137352	306.193056459781	1083.642003274648	1371.545314779747	478.355099487352	978.635103255100	1440.383050159732	642.774498696934	955.728302988036	1495.168316170044	461.636357560190	1034.314200493250	944.543680657163	616.519999850524	1040.621560954115	962.547329205040	341.951825244214	1090.569067708021	747.258954686753	593.065735008883	1017.993163662860	634.259172403633	656.742698306446	1102.804429779937	586.852862771603	580.183683483489	1115.590628431043	504.617553949386	590.810431049243	1050.242502049560	732.512620508225	366.402335124301	940.021872875614	634.033684568769	297.963316810820	1004.539653508975	542.273971882798	359.686816878561	992.218003534177	473.425131041854	365.872361561856	956.350383399272	407.172602268484	356.498016270787	850.176806956574	307.051926089209	304.585510270452	887.104888890854	187.144114949189	370.884421954996	1097.202990575012	414.944173953388	603.214948358090	1036.016215018688	306.374294665493	667.959261674139	1095.423943246387	214.861892890046	614.213950945534	985.619806220453	42.645137388867	590.659784242307	1154.776059134345	98.535003586897	624.243012878345	1069.837130846897	36.566029799459	664.182337558940	1276.595195987282	50.524294129612	650.638845160648	748.209806489665	38.734754669355	416.514494759342	817.383625537617	34.674651833939	331.814016806225	902.738914209492	95.008706759469	355.420268141566	1029.754958201029	41.264934462275	318.331783712239	1053.224393426174	1097.299352868148	162.386014720823	1302.978914311014	1020.951957014276	156.296879455055	873.086947124451	1108.031144656000	751.066609246687	903.495848025525	846.997484477295	748.210898316547	
128	59.685428571429	814.498585011789	1000.371068172907	483.886122579817	994.052435653244	1432.874862682051	309.443199775492	1083.301786964357	1371.853591599166	481.272493804205	978.536894175829	1440.025639430587	646.149202183370	954.882097892536	1495.018447890567	465.011054973966	1036.065120677016	944.707219326436	619.349451621687	1041.576554354308	962.630243963853	344.802089624209	1092.353867197545	747.047779984935	594.762857219819	1019.425809950443	634.261351043493	658.303519109609	1103.501944999718	586.920636192054	581.040321266673	1114.922783791319	503.811265169239	591.253092025150	1051.447430263060	732.124599705724	368.397425028343	940.720623254139	633.536356522520	300.648812138985	1006.182666805621	541.480791452945	361.400504864252	994.166472176624	471.731309264794	367.013317146786	956.437652798246	406.084104617413	357.794514037888	848.104198284387	308.122508729144	306.105727894857	883.426649984740	187.073625457080	371.297148353855	1096.177495833901	413.839123920822	603.762268858714	1034.278768258526	305.838489661611	669.009269934252	1091.676212535298	213.617641161642	614.060924562096	979.136566598882	42.480932582339	590.985308179968	1148.716083260353	97.753824798206	623.729029019152	1063.548742958327	36.385874175961	664.318483332557	1270.536169465022	49.208478361129	649.872103325139	742.725385298482	39.718627967641	416.345412090265	811.986541902498	34.896806256111	331.869848974425	897.710418913673	95.006532041518	355.224201912867	1024.395190897998	40.987647810109	318.219457855754	1048.740112805633	1095.952315377941	166.756539099090	1296.669950800573	1012.815597822669	158.718982267556	878.568773676006	1105.542890985312	754.990912288243	916.787936766373	845.404100428906	752.809277554227	
129	59.698857142857	815.442727174861	1000.113923616996	487.546607977806	992.909999041754	1433.138521290482	312.778194095991	1082.990727963907	1372.261133703139	484.251591066655	978.546589154893	1439.825168172416	649.582568666688	954.109568465607	1495.038317578216	468.478397389633	1037.650805691522	945.055882474115	622.349062176542	1042.444566295515	962.886339878866	347.779440248061	1093.915534713947	747.118426617565	596.633237669670	1020.923072681072	634.512559797122	660.167385168574	1104.218706046428	587.175614385292	582.179410804454	1114.381312955926	503.264556960522	592.158392121490	1052.957654937450	732.025717690749	370.642644694963	942.152540243273	633.049433054322	303.389470838769	1008.934618288650	540.845425236472	363.138575810643	997.357900792951	470.035187001023	367.980091718396	957.525635996207	405.040796035610	358.985166382072	846.819488082470	309.582269533787	307.599242841472	880.271526303212	187.336212425908	371.609984202712	1095.291428939206	413.079726392738	604.668100353388	1032.846566386418	305.550744123771	670.346578089407	1088.412421511485	212.784910043854	614.232299842217	973.578283878233	42.400005442096	591.387373853179	1143.377928345392	97.480792405985	623.593923234581	1058.119886118208	36.376133363917	664.601970317953	1265.229128641223	48.679456044020	649.539459764878	737.392894115765	41.518279172519	416.115656622154	806.686714848903	35.534895452331	331.901368784219	892.985073563391	95.134556003920	354.894906993278	1019.052182520797	40.655637328698	318.094081763949	1043.945887997582	1094.830726441639	171.229704928008	1289.435788707395	1003.872108705636	161.079477454310	884.526296998810	1103.232321971087	759.118327917544	931.204058263203	844.371638318968	757.655296283119	
